<svg width="15" height="16" viewBox="0 0 15 16" fill="none" xmlns="http://www.w3.org/2000/svg">
<path d="M12.3028 5.1057L11.5095 3.34611L9.74994 2.55285L11.5095 1.75959L12.3028 0L13.0961 1.75959L14.8556 2.55285L13.0961 3.34611L12.3028 5.1057ZM12.3028 15.3172L11.5095 13.5576L9.74994 12.7644L11.5095 11.9711L12.3028 10.2115L13.0961 11.9711L14.8556 12.7644L13.0961 13.5576L12.3028 15.3172ZM5.09128 12.7499L3.50476 9.24513L0 7.65861L3.50476 6.07209L5.09128 2.56733L6.6778 6.07209L10.1826 7.65861L6.6778 9.24513L5.09128 12.7499ZM5.09128 10.0211L5.84128 8.40861L7.45378 7.65861L5.84128 6.90861L5.09128 5.29611L4.34128 6.90861L2.72878 7.65861L4.34128 8.40861L5.09128 10.0211Z" fill="#BDBDBD"/>
</svg>
