<svg width="16" height="16" viewBox="0 0 16 16" fill="none" xmlns="http://www.w3.org/2000/svg">
<g clip-path="url(#clip0_3240_1454)">
<path d="M6.06063 6.00005C6.21736 5.5545 6.52673 5.17879 6.93393 4.93948C7.34113 4.70016 7.81989 4.61268 8.28541 4.69253C8.75093 4.77238 9.17317 5.0144 9.47735 5.37574C9.78152 5.73708 9.948 6.1944 9.94729 6.66672C9.94729 8.00005 7.94729 8.66672 7.94729 8.66672M8.00065 11.3333H8.00732M14.6673 8C14.6673 11.6819 11.6825 14.6667 8.00065 14.6667C4.31875 14.6667 1.33398 11.6819 1.33398 8C1.33398 4.3181 4.31875 1.33333 8.00065 1.33333C11.6825 1.33333 14.6673 4.3181 14.6673 8Z" stroke="#BDBDBD" stroke-width="1.4" stroke-linecap="round" stroke-linejoin="round"/>
</g>
<defs>
<clipPath id="clip0_3240_1454">
<rect width="16" height="16" fill="white"/>
</clipPath>
</defs>
</svg>
