<svg width="16" height="16" viewBox="0 0 16 16" fill="none" xmlns="http://www.w3.org/2000/svg">
<g clip-path="url(#clip0_3240_27518)">
<rect width="16" height="16" fill="white"/>
<path d="M2.66602 14.6668V2.66683C2.66602 2.56333 2.69011 2.46126 2.7364 2.36869C2.78268 2.27612 2.84988 2.19559 2.93268 2.1335C3.62507 1.61421 4.4672 1.3335 5.33268 1.3335C7.33268 1.3335 8.66602 2.66683 10.2213 2.66683C11.1102 2.66683 11.7918 2.48905 12.266 2.1335C12.3651 2.05921 12.4828 2.01398 12.6061 2.00286C12.7295 1.99174 12.8534 2.01518 12.9642 2.07054C13.0749 2.12591 13.168 2.21102 13.2331 2.31634C13.2982 2.42166 13.3327 2.54302 13.3327 2.66683V9.3335C13.3327 9.43699 13.3086 9.53907 13.2623 9.63164C13.216 9.72421 13.1488 9.80473 13.066 9.86683C12.3736 10.3861 11.5315 10.6668 10.666 10.6668C8.66602 10.6668 7.33268 9.3335 5.33268 9.3335C4.34876 9.33352 3.39937 9.69619 2.66602 10.3522" stroke="#767575" stroke-width="1.4" stroke-linecap="round" stroke-linejoin="round"/>
</g>
<defs>
<clipPath id="clip0_3240_27518">
<rect width="16" height="16" fill="white"/>
</clipPath>
</defs>
</svg>
