<svg width="16" height="16" viewBox="0 0 16 16" fill="none" xmlns="http://www.w3.org/2000/svg">
<g clip-path="url(#clip0_3240_1465)">
<path d="M14.6673 8C14.6673 11.6819 11.6825 14.6667 8.00065 14.6667M14.6673 8C14.6673 4.3181 11.6825 1.33333 8.00065 1.33333M14.6673 8H1.33398M8.00065 14.6667C4.31875 14.6667 1.33398 11.6819 1.33398 8M8.00065 14.6667C6.28881 12.8692 5.33398 10.4822 5.33398 8C5.33398 5.51783 6.28881 3.13077 8.00065 1.33333M8.00065 14.6667C9.71249 12.8692 10.6673 10.4822 10.6673 8C10.6673 5.51783 9.71249 3.13077 8.00065 1.33333M1.33398 8C1.33398 4.3181 4.31875 1.33333 8.00065 1.33333" stroke="#BDBDBD" stroke-width="1.4" stroke-linecap="round" stroke-linejoin="round"/>
</g>
<defs>
<clipPath id="clip0_3240_1465">
<rect width="16" height="16" fill="white"/>
</clipPath>
</defs>
</svg>
