<svg width="52" height="44" viewBox="0 0 52 44" fill="none" xmlns="http://www.w3.org/2000/svg">
<path d="M51.5883 39.0445C52.1387 39.9977 52.1387 41.1722 51.5883 42.1254C51.0379 43.0787 50.0208 43.6659 48.9201 43.6659H18.3596C17.2589 43.6659 16.2417 43.0787 15.6914 42.1254C15.141 41.1722 15.141 39.9977 15.6914 39.0445L17.6006 35.7376L20.6601 37.504H43.5837L36.759 25.9624C36.759 25.9624 38.4166 22.9942 41.3952 21.481L51.5883 39.0445ZM27.2672 0C28.368 5.68404e-06 29.385 0.587239 29.9354 1.54049L39.7582 16.908C36.6194 17.4857 33.4882 19.1487 33.4882 19.1487L27.2672 9.24294L7.28877 43.1041C7.10893 43.4089 6.78139 43.5959 6.4275 43.5959H3.48685C1.94221 43.5959 0.980604 41.9195 1.76048 40.5862L24.599 1.54049L24.612 1.5182C25.1653 0.578082 26.1751 -2.12021e-06 27.2672 0Z" fill="white"/>
<path fill-rule="evenodd" clip-rule="evenodd" d="M39.6072 18.5234C40.4048 18.2518 45.3401 16.8782 45.8594 17.1093C45.9169 17.1347 45.9129 17.1776 45.9312 17.2327C45.8036 17.4156 44.7705 17.8367 44.5008 17.9557C35.9933 21.713 30.5305 28.6559 29.7352 38.0273L25.0723 39.4576C25.4228 37.0589 26.1351 34.7271 27.1843 32.5422L24.1693 32.3287L23.9178 32.7169C22.6596 34.7191 21.5518 36.7765 20.7174 38.993C20.5444 39.346 20.1951 40.7289 19.9514 40.9224C19.3782 41.3769 15.7954 40.9506 15.4908 40.3993C15.517 39.885 16.1461 38.2244 16.4516 37.6626C20.5668 30.1056 26.9844 24.0573 34.7721 20.397C36.2416 19.7107 38.0438 18.9848 39.6072 18.5234ZM29.1853 26.3199C27.7466 27.7981 26.8316 28.8243 25.5986 30.516C26.2258 30.5671 26.8538 30.6145 27.4815 30.6587L28.0752 30.6982C28.7682 29.4486 29.9705 27.6 30.9187 26.5288C30.613 26.4885 29.3593 26.297 29.1853 26.3199ZM34.9226 21.5446C33.3106 22.5534 32.199 23.4641 30.79 24.7163C31.149 24.7631 31.5078 24.8123 31.8662 24.8636L32.3862 24.9329C33.5079 23.7116 34.5378 22.8292 35.8143 21.7949C35.6681 21.7484 35.0186 21.5259 34.9226 21.5446ZM36.3351 20.66C36.5763 20.7361 36.8319 20.813 37.0698 20.8953C37.2138 20.8435 38.8069 19.8318 39.0576 19.682C38.9052 19.6003 38.7912 19.5151 38.623 19.5154L36.3351 20.66Z" fill="white"/>
</svg>
