<svg width="16" height="16" viewBox="0 0 16 16" fill="none" xmlns="http://www.w3.org/2000/svg">
<g clip-path="url(#clip0_3240_2346)">
<path d="M11.6673 4.3335H11.674M4.66732 1.3335H11.334C13.1749 1.3335 14.6673 2.82588 14.6673 4.66683V11.3335C14.6673 13.1744 13.1749 14.6668 11.334 14.6668H4.66732C2.82637 14.6668 1.33398 13.1744 1.33398 11.3335V4.66683C1.33398 2.82588 2.82637 1.3335 4.66732 1.3335ZM10.6673 7.58004C10.7496 8.13487 10.6548 8.70152 10.3965 9.19938C10.1381 9.69725 9.72938 10.101 9.22837 10.3532C8.72736 10.6053 8.15958 10.6931 7.60581 10.604C7.05204 10.5149 6.54046 10.2534 6.14384 9.85681C5.74723 9.4602 5.48577 8.94862 5.39666 8.39485C5.30755 7.84107 5.39533 7.2733 5.6475 6.77229C5.89968 6.27127 6.30341 5.86253 6.80127 5.6042C7.29914 5.34587 7.86579 5.2511 8.42062 5.33337C8.98657 5.41729 9.51052 5.68101 9.91508 6.08558C10.3196 6.49014 10.5834 7.01409 10.6673 7.58004Z" stroke="#333333" stroke-width="1.4" stroke-linecap="round" stroke-linejoin="round"/>
</g>
<defs>
<clipPath id="clip0_3240_2346">
<rect width="16" height="16" fill="white"/>
</clipPath>
</defs>
</svg>
