<svg width="16" height="16" viewBox="0 0 16 16" fill="none" xmlns="http://www.w3.org/2000/svg">
<path d="M10.4121 6.11182C10.9267 5.90993 11.5267 5.84015 12.0918 5.93604C12.6541 6.03153 13.1656 6.28698 13.5361 6.71729C13.9039 7.1444 14.1679 7.78408 14.168 8.71338V13.5005H12.5342V9.62061C12.5342 8.85385 12.304 8.23563 11.9014 7.80908C11.4992 7.38329 10.9597 7.18665 10.4268 7.20557C9.34279 7.2442 8.35449 8.15178 8.35449 9.62061V13.5005H6.72754V6.15381H8.36914L8.35449 6.76123L9.29297 7.01416C9.49976 6.63671 9.89474 6.31481 10.4121 6.11182ZM4.16797 6.15381V13.5005H2.50098V6.15381H4.16797ZM3.29492 2.49951C3.51579 2.49968 3.72765 2.58743 3.88379 2.74365C4.03999 2.90001 4.12804 3.11248 4.12793 3.3335C4.12776 3.55443 4.03912 3.76622 3.88281 3.92236C3.72649 4.07842 3.51483 4.16659 3.29395 4.1665C3.07293 4.16639 2.86128 4.07775 2.70508 3.92139C2.54892 3.76505 2.46085 3.55349 2.46094 3.33252C2.46105 3.11164 2.5489 2.89983 2.70508 2.74365C2.86144 2.58745 3.07391 2.4994 3.29492 2.49951Z" fill="#333333" stroke="#333333"/>
</svg>
