<svg width="16" height="16" viewBox="0 0 16 16" fill="none" xmlns="http://www.w3.org/2000/svg">
<g clip-path="url(#clip0_3240_2372)">
<path d="M9.22198 11.0455C9.35967 11.1087 9.51478 11.1232 9.66178 11.0865C9.80877 11.0497 9.93887 10.964 10.0307 10.8435L10.2673 10.5335C10.3915 10.3679 10.5526 10.2335 10.7377 10.1409C10.9228 10.0484 11.127 10.0002 11.334 10.0002H13.334C13.6876 10.0002 14.0267 10.1406 14.2768 10.3907C14.5268 10.6407 14.6673 10.9799 14.6673 11.3335V13.3335C14.6673 13.6871 14.5268 14.0263 14.2768 14.2763C14.0267 14.5264 13.6876 14.6668 13.334 14.6668C10.1514 14.6668 7.09914 13.4025 4.8487 11.1521C2.59827 8.90167 1.33398 5.84943 1.33398 2.66683C1.33398 2.31321 1.47446 1.97407 1.72451 1.72402C1.97456 1.47397 2.3137 1.3335 2.66732 1.3335H4.66732C5.02094 1.3335 5.36008 1.47397 5.61013 1.72402C5.86017 1.97407 6.00065 2.31321 6.00065 2.66683V4.66683C6.00065 4.87382 5.95246 5.07797 5.85989 5.26311C5.76732 5.44825 5.63291 5.6093 5.46732 5.7335L5.15532 5.9675C5.03293 6.06095 4.94666 6.19389 4.91118 6.34373C4.87569 6.49357 4.89317 6.65108 4.96065 6.7895C5.87177 8.64007 7.37027 10.1367 9.22198 11.0455Z" stroke="#767575" stroke-width="1.4" stroke-linecap="round" stroke-linejoin="round"/>
</g>
<defs>
<clipPath id="clip0_3240_2372">
<rect width="16" height="16" fill="white"/>
</clipPath>
</defs>
</svg>
