<svg width="16" height="16" viewBox="0 0 16 16" fill="none" xmlns="http://www.w3.org/2000/svg">
<path d="M8.00098 1.8335C8.81067 1.83354 9.61229 1.99337 10.3604 2.30322C11.1085 2.61313 11.7887 3.06751 12.3613 3.64014C12.9338 4.2127 13.3884 4.89211 13.6982 5.64014C14.0081 6.38831 14.167 7.19067 14.167 8.00049C14.1669 9.63587 13.5177 11.2044 12.3613 12.3608C11.2049 13.5172 9.63636 14.1664 8.00098 14.1665C7.58954 14.1665 7.19185 14.1209 6.79785 14.0396C7.02386 13.6205 7.25631 13.1333 7.36914 12.7144L7.59473 11.9155C7.6299 11.9359 7.6653 11.9557 7.70117 11.9741C8.03318 12.1448 8.43128 12.2534 8.84082 12.2534C11.2404 12.2533 12.7938 10.0899 12.7939 7.62061C12.7939 5.12623 10.7507 3.28662 8.21387 3.28662C6.65823 3.28665 5.43091 3.80711 4.5918 4.65576C3.7567 5.50048 3.34082 6.63622 3.34082 7.80713C3.34087 8.37354 3.4813 8.99664 3.74414 9.53662C3.99883 10.0598 4.39674 10.5566 4.95117 10.813C5.05375 10.8742 5.22712 10.9481 5.42871 10.8979L5.14062 12.1401L5.13867 12.147L5.1377 12.1548C5.0607 12.5357 5.05109 12.9958 5.06641 13.4185C3.1388 12.3718 1.83411 10.3321 1.83398 8.00049C1.83398 6.36499 2.48415 4.79661 3.64062 3.64014C4.21319 3.06757 4.89254 2.61312 5.64062 2.30322C6.3888 1.99332 7.19116 1.8335 8.00098 1.8335ZM8.02051 5.47314C8.73174 5.47314 9.30074 5.70791 9.68848 6.08057C10.0745 6.45156 10.3144 6.99071 10.3145 7.6665C10.3145 8.47882 10.104 9.13687 9.7959 9.57666C9.49077 10.0121 9.10466 10.2202 8.70703 10.2202C8.36838 10.2201 8.12973 9.9463 8.18555 9.59033C8.27664 9.22633 8.40526 8.86539 8.5293 8.4751C8.64647 8.10636 8.76748 7.68841 8.76758 7.31396C8.76758 6.96932 8.68275 6.60543 8.45215 6.31787C8.20889 6.01473 7.84884 5.85313 7.42773 5.85303C6.39222 5.85303 5.7002 6.88389 5.7002 7.96045C5.70023 8.31944 5.75697 8.61507 5.81543 8.82471C5.83374 8.89037 5.85488 8.94696 5.87207 8.99561L5.87012 9.00244C5.67242 8.72201 5.53425 8.29208 5.53418 7.84717C5.53418 6.62952 6.4368 5.47321 8.02051 5.47314Z" fill="#333333" stroke="#333333"/>
</svg>
