<svg width="14" height="14" viewBox="0 0 14 14" fill="none" xmlns="http://www.w3.org/2000/svg">
<path d="M2.91602 2.91652C2.91595 2.71124 2.97006 2.50958 3.07286 2.3319C3.17567 2.15422 3.32354 2.00681 3.50154 1.90456C3.67954 1.8023 3.88136 1.74882 4.08664 1.74952C4.29192 1.75022 4.49338 1.80506 4.67068 1.90852L11.6689 5.99069C11.8455 6.09317 11.9922 6.24021 12.0941 6.41711C12.1961 6.59401 12.2499 6.79458 12.2501 6.99877C12.2502 7.20296 12.1968 7.40362 12.0952 7.5807C11.9935 7.75778 11.8471 7.90507 11.6707 8.00786L4.67068 12.0912C4.49338 12.1947 4.29192 12.2495 4.08664 12.2502C3.88136 12.2509 3.67954 12.1974 3.50154 12.0952C3.32354 11.9929 3.17567 11.8455 3.07286 11.6678C2.97006 11.4901 2.91595 11.2885 2.91602 11.0832V2.91652Z" fill="white"/>
</svg>
