<svg width="16" height="16" viewBox="0 0 16 16" fill="none" xmlns="http://www.w3.org/2000/svg">
<mask id="path-1-inside-1_3240_2355" fill="white">
<path fill-rule="evenodd" clip-rule="evenodd" d="M13.3075 1.1665C12.7255 1.1665 12.2168 1.48584 11.9488 1.9585L9.5488 1.46584C9.43569 1.44267 9.31805 1.45936 9.21585 1.51307C9.11366 1.56678 9.03319 1.65421 8.98813 1.7605C8.71413 2.4045 8.30346 3.38117 7.96013 4.21717C7.80946 4.58517 7.6708 4.92784 7.5628 5.20384C6.28413 5.26517 5.10146 5.59717 4.1248 6.1265C3.94126 5.8767 3.7033 5.67191 3.42894 5.52763C3.15458 5.38335 2.85099 5.30336 2.54116 5.29372C2.23132 5.28408 1.92335 5.34504 1.64055 5.47198C1.35775 5.59893 1.10753 5.78853 0.908814 6.02644C0.7101 6.26436 0.568102 6.54436 0.493564 6.84525C0.419027 7.14614 0.413902 7.46004 0.478578 7.7632C0.543254 8.06636 0.676037 8.35085 0.866879 8.59512C1.05772 8.8394 1.30162 9.03707 1.58013 9.17317C1.52191 9.43006 1.49257 9.69384 1.49213 9.9645C1.49213 11.3245 2.25946 12.5258 3.43946 13.3738C4.61946 14.2225 6.23346 14.7365 8.0008 14.7365C9.76813 14.7365 11.3815 14.2225 12.5621 13.3738C13.7421 12.5258 14.5095 11.3252 14.5095 9.9645C14.5095 9.69384 14.4801 9.43028 14.4215 9.17384C14.6995 9.03751 14.9429 8.83977 15.1333 8.59556C15.3237 8.35136 15.4561 8.06708 15.5205 7.76419C15.5849 7.46131 15.5796 7.14775 15.5051 6.84721C15.4305 6.54666 15.2886 6.26699 15.0901 6.02933C14.8916 5.79167 14.6417 5.60223 14.3592 5.47533C14.0768 5.34843 13.7692 5.28738 13.4597 5.29681C13.1502 5.30623 12.8468 5.38588 12.5726 5.52973C12.2984 5.67358 12.0605 5.87787 11.8768 6.12717C10.9501 5.62384 9.83746 5.29984 8.63413 5.21517L8.88546 4.5965C9.1648 3.91584 9.49013 3.13984 9.7488 2.52784L11.7608 2.94117C11.8016 3.23827 11.9271 3.51733 12.1223 3.74503C12.3174 3.97272 12.574 4.13942 12.8614 4.22522C13.1487 4.31101 13.4547 4.31227 13.7428 4.22885C14.0308 4.14543 14.2888 3.98085 14.4858 3.75477C14.6828 3.52869 14.8106 3.25067 14.8539 2.95392C14.8972 2.65717 14.8541 2.35424 14.7299 2.0813C14.6056 1.80836 14.4054 1.57697 14.1532 1.41475C13.9009 1.25253 13.6074 1.16635 13.3075 1.1665ZM12.7461 2.72784C12.7461 2.57887 12.8053 2.43601 12.9106 2.33068C13.016 2.22535 13.1588 2.16617 13.3078 2.16617C13.4568 2.16617 13.5996 2.22535 13.705 2.33068C13.8103 2.43601 13.8695 2.57887 13.8695 2.72784C13.8695 2.8768 13.8103 3.01966 13.705 3.125C13.5996 3.23033 13.4568 3.2895 13.3078 3.2895C13.1588 3.2895 13.016 3.23033 12.9106 3.125C12.8053 3.01966 12.7461 2.8768 12.7461 2.72784ZM14.0681 8.22784C13.7548 7.63917 13.2908 7.1125 12.7188 6.67184C12.8155 6.55501 12.9364 6.46064 13.0732 6.39529C13.21 6.32994 13.3595 6.29518 13.5111 6.29343C13.6627 6.29167 13.8129 6.32296 13.9512 6.38512C14.0895 6.44728 14.2126 6.53882 14.3119 6.65338C14.4113 6.76793 14.4844 6.90275 14.5264 7.04845C14.5684 7.19416 14.5781 7.34726 14.5549 7.4971C14.5317 7.64694 14.4761 7.78993 14.3921 7.91613C14.308 8.04232 14.1975 8.14869 14.0681 8.22784ZM3.2828 6.67184C3.18619 6.55483 3.06523 6.46028 2.92836 6.39479C2.79148 6.3293 2.64197 6.29443 2.49024 6.29261C2.33851 6.29079 2.18821 6.32207 2.04981 6.38427C1.9114 6.44646 1.78822 6.53808 1.68883 6.65275C1.58945 6.76741 1.51625 6.90236 1.47435 7.04819C1.43244 7.19403 1.42282 7.34725 1.44617 7.49718C1.46952 7.64711 1.52528 7.79015 1.60955 7.91634C1.69382 8.04253 1.80458 8.14883 1.93413 8.22784C2.24746 7.63917 2.7108 7.1125 3.2828 6.67184ZM10.3595 9.96517C10.6154 9.96517 10.8608 9.8635 11.0418 9.68253C11.2228 9.50156 11.3245 9.2561 11.3245 9.00017C11.3245 8.74424 11.2228 8.49879 11.0418 8.31781C10.8608 8.13684 10.6154 8.03517 10.3595 8.03517C10.1036 8.03517 9.85825 8.1368 9.67734 8.31771C9.49643 8.49862 9.3948 8.74399 9.3948 8.99984C9.3948 9.25568 9.49643 9.50105 9.67734 9.68196C9.85825 9.86287 10.1036 9.9645 10.3595 9.9645M6.60413 8.99984C6.60413 9.25577 6.50246 9.50122 6.32149 9.6822C6.14051 9.86317 5.89506 9.96484 5.63913 9.96484C5.3832 9.96484 5.13774 9.86317 4.95677 9.6822C4.7758 9.50122 4.67413 9.25577 4.67413 8.99984C4.67413 8.7439 4.7758 8.49845 4.95677 8.31748C5.13774 8.13651 5.3832 8.03484 5.63913 8.03484C5.89506 8.03484 6.14051 8.13651 6.32149 8.31748C6.50246 8.49845 6.60413 8.7439 6.60413 8.99984ZM5.9008 11.0858C5.78882 11.02 5.6556 11.0003 5.52935 11.0309C5.4031 11.0616 5.29373 11.1401 5.22441 11.25C5.15509 11.3599 5.13125 11.4924 5.15795 11.6196C5.18466 11.7467 5.2598 11.8585 5.36746 11.9312L5.59746 12.0765C6.31613 12.5298 7.14845 12.7704 7.99813 12.7704C8.84781 12.7704 9.68013 12.5298 10.3988 12.0765L10.6288 11.9318C10.6844 11.8968 10.7325 11.8512 10.7705 11.7976C10.8085 11.7439 10.8355 11.6834 10.85 11.6193C10.8646 11.5552 10.8664 11.4889 10.8553 11.4241C10.8442 11.3594 10.8205 11.2974 10.7855 11.2418C10.7504 11.1862 10.7048 11.1381 10.6512 11.1001C10.5976 11.0622 10.537 11.0351 10.4729 11.0206C10.4088 11.0061 10.3425 11.0043 10.2778 11.0153C10.213 11.0264 10.1511 11.0502 10.0955 11.0852L9.86546 11.2305C9.30647 11.5831 8.65905 11.7703 7.99813 11.7703C7.33721 11.7703 6.68979 11.5831 6.1308 11.2305L5.9008 11.0858Z"/>
</mask>
<path fill-rule="evenodd" clip-rule="evenodd" d="M13.3075 1.1665C12.7255 1.1665 12.2168 1.48584 11.9488 1.9585L9.5488 1.46584C9.43569 1.44267 9.31805 1.45936 9.21585 1.51307C9.11366 1.56678 9.03319 1.65421 8.98813 1.7605C8.71413 2.4045 8.30346 3.38117 7.96013 4.21717C7.80946 4.58517 7.6708 4.92784 7.5628 5.20384C6.28413 5.26517 5.10146 5.59717 4.1248 6.1265C3.94126 5.8767 3.7033 5.67191 3.42894 5.52763C3.15458 5.38335 2.85099 5.30336 2.54116 5.29372C2.23132 5.28408 1.92335 5.34504 1.64055 5.47198C1.35775 5.59893 1.10753 5.78853 0.908814 6.02644C0.7101 6.26436 0.568102 6.54436 0.493564 6.84525C0.419027 7.14614 0.413902 7.46004 0.478578 7.7632C0.543254 8.06636 0.676037 8.35085 0.866879 8.59512C1.05772 8.8394 1.30162 9.03707 1.58013 9.17317C1.52191 9.43006 1.49257 9.69384 1.49213 9.9645C1.49213 11.3245 2.25946 12.5258 3.43946 13.3738C4.61946 14.2225 6.23346 14.7365 8.0008 14.7365C9.76813 14.7365 11.3815 14.2225 12.5621 13.3738C13.7421 12.5258 14.5095 11.3252 14.5095 9.9645C14.5095 9.69384 14.4801 9.43028 14.4215 9.17384C14.6995 9.03751 14.9429 8.83977 15.1333 8.59556C15.3237 8.35136 15.4561 8.06708 15.5205 7.76419C15.5849 7.46131 15.5796 7.14775 15.5051 6.84721C15.4305 6.54666 15.2886 6.26699 15.0901 6.02933C14.8916 5.79167 14.6417 5.60223 14.3592 5.47533C14.0768 5.34843 13.7692 5.28738 13.4597 5.29681C13.1502 5.30623 12.8468 5.38588 12.5726 5.52973C12.2984 5.67358 12.0605 5.87787 11.8768 6.12717C10.9501 5.62384 9.83746 5.29984 8.63413 5.21517L8.88546 4.5965C9.1648 3.91584 9.49013 3.13984 9.7488 2.52784L11.7608 2.94117C11.8016 3.23827 11.9271 3.51733 12.1223 3.74503C12.3174 3.97272 12.574 4.13942 12.8614 4.22522C13.1487 4.31101 13.4547 4.31227 13.7428 4.22885C14.0308 4.14543 14.2888 3.98085 14.4858 3.75477C14.6828 3.52869 14.8106 3.25067 14.8539 2.95392C14.8972 2.65717 14.8541 2.35424 14.7299 2.0813C14.6056 1.80836 14.4054 1.57697 14.1532 1.41475C13.9009 1.25253 13.6074 1.16635 13.3075 1.1665ZM12.7461 2.72784C12.7461 2.57887 12.8053 2.43601 12.9106 2.33068C13.016 2.22535 13.1588 2.16617 13.3078 2.16617C13.4568 2.16617 13.5996 2.22535 13.705 2.33068C13.8103 2.43601 13.8695 2.57887 13.8695 2.72784C13.8695 2.8768 13.8103 3.01966 13.705 3.125C13.5996 3.23033 13.4568 3.2895 13.3078 3.2895C13.1588 3.2895 13.016 3.23033 12.9106 3.125C12.8053 3.01966 12.7461 2.8768 12.7461 2.72784ZM14.0681 8.22784C13.7548 7.63917 13.2908 7.1125 12.7188 6.67184C12.8155 6.55501 12.9364 6.46064 13.0732 6.39529C13.21 6.32994 13.3595 6.29518 13.5111 6.29343C13.6627 6.29167 13.8129 6.32296 13.9512 6.38512C14.0895 6.44728 14.2126 6.53882 14.3119 6.65338C14.4113 6.76793 14.4844 6.90275 14.5264 7.04845C14.5684 7.19416 14.5781 7.34726 14.5549 7.4971C14.5317 7.64694 14.4761 7.78993 14.3921 7.91613C14.308 8.04232 14.1975 8.14869 14.0681 8.22784ZM3.2828 6.67184C3.18619 6.55483 3.06523 6.46028 2.92836 6.39479C2.79148 6.3293 2.64197 6.29443 2.49024 6.29261C2.33851 6.29079 2.18821 6.32207 2.04981 6.38427C1.9114 6.44646 1.78822 6.53808 1.68883 6.65275C1.58945 6.76741 1.51625 6.90236 1.47435 7.04819C1.43244 7.19403 1.42282 7.34725 1.44617 7.49718C1.46952 7.64711 1.52528 7.79015 1.60955 7.91634C1.69382 8.04253 1.80458 8.14883 1.93413 8.22784C2.24746 7.63917 2.7108 7.1125 3.2828 6.67184ZM10.3595 9.96517C10.6154 9.96517 10.8608 9.8635 11.0418 9.68253C11.2228 9.50156 11.3245 9.2561 11.3245 9.00017C11.3245 8.74424 11.2228 8.49879 11.0418 8.31781C10.8608 8.13684 10.6154 8.03517 10.3595 8.03517C10.1036 8.03517 9.85825 8.1368 9.67734 8.31771C9.49643 8.49862 9.3948 8.74399 9.3948 8.99984C9.3948 9.25568 9.49643 9.50105 9.67734 9.68196C9.85825 9.86287 10.1036 9.9645 10.3595 9.9645M6.60413 8.99984C6.60413 9.25577 6.50246 9.50122 6.32149 9.6822C6.14051 9.86317 5.89506 9.96484 5.63913 9.96484C5.3832 9.96484 5.13774 9.86317 4.95677 9.6822C4.7758 9.50122 4.67413 9.25577 4.67413 8.99984C4.67413 8.7439 4.7758 8.49845 4.95677 8.31748C5.13774 8.13651 5.3832 8.03484 5.63913 8.03484C5.89506 8.03484 6.14051 8.13651 6.32149 8.31748C6.50246 8.49845 6.60413 8.7439 6.60413 8.99984ZM5.9008 11.0858C5.78882 11.02 5.6556 11.0003 5.52935 11.0309C5.4031 11.0616 5.29373 11.1401 5.22441 11.25C5.15509 11.3599 5.13125 11.4924 5.15795 11.6196C5.18466 11.7467 5.2598 11.8585 5.36746 11.9312L5.59746 12.0765C6.31613 12.5298 7.14845 12.7704 7.99813 12.7704C8.84781 12.7704 9.68013 12.5298 10.3988 12.0765L10.6288 11.9318C10.6844 11.8968 10.7325 11.8512 10.7705 11.7976C10.8085 11.7439 10.8355 11.6834 10.85 11.6193C10.8646 11.5552 10.8664 11.4889 10.8553 11.4241C10.8442 11.3594 10.8205 11.2974 10.7855 11.2418C10.7504 11.1862 10.7048 11.1381 10.6512 11.1001C10.5976 11.0622 10.537 11.0351 10.4729 11.0206C10.4088 11.0061 10.3425 11.0043 10.2778 11.0153C10.213 11.0264 10.1511 11.0502 10.0955 11.0852L9.86546 11.2305C9.30647 11.5831 8.65905 11.7703 7.99813 11.7703C7.33721 11.7703 6.68979 11.5831 6.1308 11.2305L5.9008 11.0858Z" fill="#333333"/>
<path d="M13.3075 1.1665V2.1665L13.308 2.1665L13.3075 1.1665ZM11.9488 1.9585L11.7477 2.93808L12.46 3.0843L12.8187 2.45173L11.9488 1.9585ZM9.5488 1.46584L9.74988 0.486263L9.74945 0.486176L9.5488 1.46584ZM8.98813 1.7605L9.90831 2.15201L9.90881 2.15083L8.98813 1.7605ZM7.96013 4.21717L7.0351 3.83727L7.03469 3.83828L7.96013 4.21717ZM7.5628 5.20384L7.61071 6.20269L8.25792 6.17164L8.49404 5.56824L7.5628 5.20384ZM4.1248 6.1265L3.31892 6.71859L3.83499 7.421L4.60129 7.00568L4.1248 6.1265ZM1.58013 9.17317L2.55539 9.39421L2.73035 8.62226L2.0192 8.27472L1.58013 9.17317ZM1.49213 9.9645L0.492129 9.96286V9.9645H1.49213ZM3.43946 13.3738L4.02334 12.562L4.02304 12.5618L3.43946 13.3738ZM12.5621 13.3738L11.9785 12.5618L11.9785 12.5618L12.5621 13.3738ZM14.4215 9.17384L13.9812 8.27597L13.27 8.6247L13.4466 9.39685L14.4215 9.17384ZM11.8768 6.12717L11.3995 7.00591L12.1651 7.42176L12.6819 6.72033L11.8768 6.12717ZM8.63413 5.21517L7.70766 4.83879L7.18882 6.11595L8.56394 6.2127L8.63413 5.21517ZM8.88546 4.5965L7.96033 4.21685L7.959 4.22013L8.88546 4.5965ZM9.7488 2.52784L9.95003 1.54829L9.14689 1.3833L8.82769 2.13852L9.7488 2.52784ZM11.7608 2.94117L12.7515 2.80502L12.6551 2.10402L11.962 1.96163L11.7608 2.94117ZM13.3078 2.16617V3.16617V2.16617ZM14.0681 8.22784L13.1854 8.6977L13.6843 9.6351L14.5901 9.08079L14.0681 8.22784ZM12.7188 6.67184L11.9483 6.03437L11.2883 6.83212L12.1085 7.46402L12.7188 6.67184ZM3.2828 6.67184L3.89309 7.46402L4.71247 6.83277L4.05392 6.03516L3.2828 6.67184ZM1.93413 8.22784L1.41343 9.08158L2.31867 9.63368L2.81687 8.6977L1.93413 8.22784ZM11.3245 9.00017H10.3245H11.3245ZM10.3595 8.03517V9.03517V8.03517ZM5.9008 11.0858L6.43322 10.2394L6.42064 10.2314L6.40783 10.2239L5.9008 11.0858ZM5.36746 11.9312L4.80783 12.7599L4.82043 12.7684L4.83329 12.7765L5.36746 11.9312ZM5.59746 12.0765L5.06329 12.9219L5.06398 12.9223L5.59746 12.0765ZM7.99813 12.7704V11.7704V12.7704ZM10.3988 12.0765L9.86637 11.23L9.86531 11.2307L10.3988 12.0765ZM10.6288 11.9318L11.1612 12.7783L11.1618 12.778L10.6288 11.9318ZM10.0955 11.0852L9.56247 10.239L9.56129 10.2398L10.0955 11.0852ZM9.86546 11.2305L10.399 12.0763L10.3996 12.0759L9.86546 11.2305ZM6.1308 11.2305L6.66432 10.3847L6.66322 10.384L6.1308 11.2305ZM13.3075 1.1665V0.166504C12.3511 0.166504 11.5173 0.692039 11.0789 1.46527L11.9488 1.9585L12.8187 2.45173C12.9163 2.27964 13.0998 2.1665 13.3075 2.1665V1.1665ZM11.9488 1.9585L12.1499 0.97893L9.74988 0.486264L9.5488 1.46584L9.34771 2.44541L11.7477 2.93808L11.9488 1.9585ZM9.5488 1.46584L9.74945 0.486176C9.41014 0.416676 9.05722 0.466745 8.75063 0.62788L9.21585 1.51307L9.68108 2.39826C9.57888 2.45198 9.46125 2.46867 9.34814 2.4455L9.5488 1.46584ZM9.21585 1.51307L8.75063 0.62788C8.44403 0.789015 8.20265 1.05129 8.06745 1.37018L8.98813 1.7605L9.90881 2.15083C9.86374 2.25713 9.78328 2.34455 9.68108 2.39826L9.21585 1.51307ZM8.98813 1.7605L8.06795 1.369C7.79277 2.01578 7.38042 2.99644 7.0351 3.83727L7.96013 4.21717L8.88516 4.59707C9.22651 3.7659 9.63549 2.79323 9.90831 2.15201L8.98813 1.7605ZM7.96013 4.21717L7.03469 3.83828C6.8835 4.20755 6.74246 4.55601 6.63155 4.83944L7.5628 5.20384L8.49404 5.56824C8.59913 5.29967 8.73543 4.96279 8.88557 4.59607L7.96013 4.21717ZM7.5628 5.20384L7.51488 4.20499C6.09611 4.27304 4.7655 4.64183 3.6483 5.24733L4.1248 6.1265L4.60129 7.00568C5.43743 6.55251 6.47215 6.2573 7.61071 6.20269L7.5628 5.20384ZM4.1248 6.1265L4.93067 5.53441C4.65733 5.16239 4.30297 4.85741 3.89438 4.64254L3.42894 5.52763L2.96351 6.41271C3.10364 6.4864 3.22518 6.591 3.31892 6.71859L4.1248 6.1265ZM3.42894 5.52763L3.89438 4.64254C3.48578 4.42768 3.03368 4.30856 2.57226 4.29421L2.54116 5.29372L2.51006 6.29324C2.66831 6.29816 2.82337 6.33902 2.96351 6.41271L3.42894 5.52763ZM2.54116 5.29372L2.57226 4.29421C2.11084 4.27985 1.6522 4.37063 1.23104 4.55968L1.64055 5.47198L2.05006 6.38429C2.19451 6.31945 2.35181 6.28832 2.51006 6.29324L2.54116 5.29372ZM1.64055 5.47198L1.23104 4.55968C0.809884 4.74873 0.437241 5.03109 0.141309 5.3854L0.908814 6.02644L1.67632 6.66749C1.77781 6.54597 1.90562 6.44913 2.05006 6.38429L1.64055 5.47198ZM0.908814 6.02644L0.141309 5.3854C-0.154623 5.73971 -0.366092 6.15669 -0.477096 6.60479L0.493564 6.84525L1.46422 7.0857C1.5023 6.93202 1.57482 6.78901 1.67632 6.66749L0.908814 6.02644ZM0.493564 6.84525L-0.477096 6.60479C-0.5881 7.05289 -0.595732 7.52036 -0.499414 7.97184L0.478578 7.7632L1.45657 7.55456C1.42354 7.39971 1.42615 7.23938 1.46422 7.0857L0.493564 6.84525ZM0.478578 7.7632L-0.499414 7.97184C-0.403096 8.42333 -0.205351 8.84699 0.078858 9.21077L0.866879 8.59512L1.6549 7.97947C1.55742 7.85471 1.4896 7.7094 1.45657 7.55456L0.478578 7.7632ZM0.866879 8.59512L0.078858 9.21077C0.363066 9.57455 0.726294 9.86893 1.14106 10.0716L1.58013 9.17317L2.0192 8.27472C1.87695 8.2052 1.75238 8.10424 1.6549 7.97947L0.866879 8.59512ZM1.58013 9.17317L0.604864 8.95213C0.52988 9.28298 0.492693 9.62041 0.492131 9.96286L1.49213 9.9645L2.49213 9.96615C2.49245 9.76726 2.51393 9.57714 2.55539 9.39421L1.58013 9.17317ZM1.49213 9.9645H0.492129C0.492129 11.7288 1.48938 13.2039 2.85588 14.1859L3.43946 13.3738L4.02304 12.5618C3.02955 11.8478 2.49213 10.9202 2.49213 9.9645H1.49213ZM3.43946 13.3738L2.85558 14.1857C4.22421 15.17 6.04796 15.7365 8.0008 15.7365V14.7365V13.7365C6.41896 13.7365 5.01471 13.275 4.02334 12.562L3.43946 13.3738ZM8.0008 14.7365V15.7365C9.95378 15.7365 11.7767 15.1699 13.1458 14.1858L12.5621 13.3738L11.9785 12.5618C10.9862 13.2751 9.58248 13.7365 8.0008 13.7365V14.7365ZM12.5621 13.3738L13.1457 14.1859C14.5121 13.2039 15.5095 11.7295 15.5095 9.9645H14.5095H13.5095C13.5095 10.9208 12.9721 11.8478 11.9785 12.5618L12.5621 13.3738ZM14.5095 9.9645H15.5095C15.5095 9.62096 15.4722 9.28252 15.3963 8.95083L14.4215 9.17384L13.4466 9.39685C13.4881 9.57805 13.5095 9.76671 13.5095 9.9645H14.5095ZM14.4215 9.17384L14.8617 10.0717C15.2758 9.86865 15.6384 9.57415 15.9219 9.21043L15.1333 8.59556L14.3447 7.9807C14.2474 8.10539 14.1232 8.20636 13.9812 8.27597L14.4215 9.17384ZM15.1333 8.59556L15.9219 9.21043C16.2055 8.84671 16.4027 8.4233 16.4986 7.97219L15.5205 7.76419L14.5424 7.5562C14.5095 7.71086 14.4419 7.85601 14.3447 7.9807L15.1333 8.59556ZM15.5205 7.76419L16.4986 7.97219C16.5946 7.52107 16.5867 7.05406 16.4757 6.60643L15.5051 6.84721L14.5345 7.08798C14.5726 7.24144 14.5753 7.40155 14.5424 7.5562L15.5205 7.76419ZM15.5051 6.84721L16.4757 6.60643C16.3646 6.1588 16.1533 5.74226 15.8576 5.38829L15.0901 6.02933L14.3226 6.67037C14.424 6.79173 14.4964 6.93452 14.5345 7.08798L15.5051 6.84721ZM15.0901 6.02933L15.8576 5.38829C15.562 5.03432 15.1897 4.75217 14.7691 4.56316L14.3592 5.47533L13.9494 6.3875C14.0936 6.4523 14.2213 6.54902 14.3226 6.67037L15.0901 6.02933ZM14.3592 5.47533L14.7691 4.56316C14.3484 4.37416 13.8902 4.28324 13.4292 4.29727L13.4597 5.29681L13.4901 6.29635C13.6481 6.29153 13.8052 6.3227 13.9494 6.3875L14.3592 5.47533ZM13.4597 5.29681L13.4292 4.29727C12.9682 4.31131 12.5165 4.42993 12.1081 4.64418L12.5726 5.52973L13.0372 6.41528C13.1772 6.34183 13.3321 6.30116 13.4901 6.29635L13.4597 5.29681ZM12.5726 5.52973L12.1081 4.64418C11.6997 4.85843 11.3453 5.16271 11.0717 5.53401L11.8768 6.12717L12.6819 6.72033C12.7757 6.59304 12.8972 6.48873 13.0372 6.41528L12.5726 5.52973ZM11.8768 6.12717L12.3541 5.24843C11.2931 4.67212 10.0401 4.31162 8.70432 4.21764L8.63413 5.21517L8.56394 6.2127C9.63487 6.28806 10.6072 6.57556 11.3995 7.00591L11.8768 6.12717ZM8.63413 5.21517L9.5606 5.59155L9.81193 4.97288L8.88546 4.5965L7.959 4.22013L7.70766 4.83879L8.63413 5.21517ZM8.88546 4.5965L9.81059 4.97616C10.0881 4.29998 10.4119 3.52751 10.6699 2.91715L9.7488 2.52784L8.82769 2.13852C8.56833 2.75217 8.24151 3.53169 7.96033 4.21685L8.88546 4.5965ZM9.7488 2.52784L9.54756 3.50738L11.5596 3.92071L11.7608 2.94117L11.962 1.96163L9.95003 1.54829L9.7488 2.52784ZM11.7608 2.94117L10.7701 3.07732C10.8371 3.56462 11.0429 4.02234 11.363 4.39581L12.1223 3.74503L12.8815 3.09424C12.8113 3.01232 12.7662 2.91191 12.7515 2.80502L11.7608 2.94117ZM12.1223 3.74503L11.363 4.39581C11.6831 4.76928 12.104 5.0427 12.5753 5.18342L12.8614 4.22522L13.1475 3.26701C13.0441 3.23615 12.9518 3.17617 12.8815 3.09424L12.1223 3.74503ZM12.8614 4.22522L12.5753 5.18342C13.0466 5.32414 13.5485 5.32621 14.0209 5.18938L13.7428 4.22885L13.4646 3.26832C13.3609 3.29834 13.2509 3.29788 13.1475 3.26701L12.8614 4.22522ZM13.7428 4.22885L14.0209 5.18938C14.4934 5.05255 14.9165 4.7826 15.2397 4.41179L14.4858 3.75477L13.7319 3.09775C13.661 3.17909 13.5682 3.23831 13.4646 3.26832L13.7428 4.22885ZM14.4858 3.75477L15.2397 4.41179C15.5629 4.04097 15.7724 3.58496 15.8434 3.09823L14.8539 2.95392L13.8644 2.80961C13.8488 2.91638 13.8028 3.01641 13.7319 3.09775L14.4858 3.75477ZM14.8539 2.95392L15.8434 3.09823C15.9144 2.6115 15.8438 2.11463 15.64 1.66696L14.7299 2.0813L13.8197 2.49564C13.8644 2.59384 13.8799 2.70284 13.8644 2.80961L14.8539 2.95392ZM14.7299 2.0813L15.64 1.66696C15.4362 1.21929 15.1078 0.839748 14.6941 0.573679L14.1532 1.41475L13.6123 2.25582C13.703 2.31419 13.775 2.39744 13.8197 2.49564L14.7299 2.0813ZM14.1532 1.41475L14.6941 0.573679C14.2804 0.307609 13.7988 0.166256 13.307 0.166504L13.3075 1.1665L13.308 2.1665C13.4159 2.16645 13.5215 2.19746 13.6123 2.25582L14.1532 1.41475ZM12.7461 2.72784H13.7461C13.7461 2.84409 13.6999 2.95558 13.6177 3.03779L12.9106 2.33068L12.2035 1.62357C11.9107 1.91644 11.7461 2.31366 11.7461 2.72784H12.7461ZM12.9106 2.33068L13.6177 3.03779C13.5355 3.11999 13.4241 3.16617 13.3078 3.16617V2.16617V1.16617C12.8936 1.16617 12.4964 1.3307 12.2035 1.62357L12.9106 2.33068ZM13.3078 2.16617V3.16617C13.1915 3.16617 13.0801 3.11999 12.9978 3.03779L13.705 2.33068L14.4121 1.62357C14.1192 1.3307 13.722 1.16617 13.3078 1.16617V2.16617ZM13.705 2.33068L12.9978 3.03779C12.9156 2.95558 12.8695 2.84409 12.8695 2.72784H13.8695H14.8695C14.8695 2.31366 14.7049 1.91644 14.4121 1.62357L13.705 2.33068ZM13.8695 2.72784H12.8695C12.8695 2.61159 12.9156 2.5001 12.9978 2.41789L13.705 3.125L14.4121 3.8321C14.7049 3.53923 14.8695 3.14201 14.8695 2.72784H13.8695ZM13.705 3.125L12.9978 2.41789C13.0801 2.33569 13.1915 2.2895 13.3078 2.2895V3.2895V4.2895C13.722 4.2895 14.1192 4.12497 14.4121 3.8321L13.705 3.125ZM13.3078 3.2895V2.2895C13.4241 2.2895 13.5355 2.33569 13.6177 2.41789L12.9106 3.125L12.2035 3.8321C12.4964 4.12497 12.8936 4.2895 13.3078 4.2895V3.2895ZM12.9106 3.125L13.6177 2.41789C13.6999 2.50009 13.7461 2.61158 13.7461 2.72784H12.7461H11.7461C11.7461 3.14202 11.9107 3.53923 12.2035 3.8321L12.9106 3.125ZM14.0681 8.22784L14.9509 7.75798C14.5616 7.0267 13.9975 6.39457 13.3291 5.87966L12.7188 6.67184L12.1085 7.46402C12.5841 7.83044 12.948 8.25164 13.1854 8.6977L14.0681 8.22784ZM12.7188 6.67184L13.4893 7.30931C13.4933 7.30438 13.4984 7.30041 13.5042 7.29765L13.0732 6.39529L12.6422 5.49294C12.3744 5.62088 12.1376 5.80564 11.9483 6.03437L12.7188 6.67184ZM13.0732 6.39529L13.5042 7.29765C13.51 7.2949 13.5163 7.29343 13.5227 7.29336L13.5111 6.29343L13.4995 5.29349C13.2026 5.29693 12.9101 5.36499 12.6422 5.49294L13.0732 6.39529ZM13.5111 6.29343L13.5227 7.29336C13.5291 7.29328 13.5354 7.2946 13.5412 7.29722L13.9512 6.38512L14.3611 5.47302C14.0904 5.35131 13.7963 5.29005 13.4995 5.29349L13.5111 6.29343ZM13.9512 6.38512L13.5412 7.29722C13.547 7.29984 13.5522 7.3037 13.5564 7.30853L14.3119 6.65338L15.0674 5.99822C14.8729 5.77394 14.6319 5.59472 14.3611 5.47302L13.9512 6.38512ZM14.3119 6.65338L13.5564 7.30853C13.5606 7.31336 13.5637 7.31904 13.5655 7.32518L14.5264 7.04845L15.4874 6.77173C15.4052 6.48646 15.2619 6.2225 15.0674 5.99822L14.3119 6.65338ZM14.5264 7.04845L13.5655 7.32518C13.5672 7.33132 13.5676 7.33777 13.5667 7.34409L14.5549 7.4971L15.5431 7.65011C15.5885 7.35674 15.5695 7.057 15.4874 6.77173L14.5264 7.04845ZM14.5549 7.4971L13.5667 7.34409C13.5657 7.3504 13.5633 7.35643 13.5598 7.36175L14.3921 7.91613L15.2243 8.4705C15.3889 8.22343 15.4977 7.94348 15.5431 7.65011L14.5549 7.4971ZM14.3921 7.91613L13.5598 7.36175C13.5563 7.36706 13.5516 7.37155 13.5461 7.37489L14.0681 8.22784L14.5901 9.08079C14.8433 8.92583 15.0597 8.71758 15.2243 8.4705L14.3921 7.91613ZM3.2828 6.67184L4.05392 6.03516C3.86478 5.80607 3.62796 5.62096 3.35998 5.49274L2.92836 6.39479L2.49673 7.29684C2.5025 7.2996 2.5076 7.30359 2.51167 7.30852L3.2828 6.67184ZM2.92836 6.39479L3.35998 5.49274C3.09199 5.36451 2.79928 5.29624 2.50222 5.29268L2.49024 6.29261L2.47827 7.29254C2.48466 7.29261 2.49096 7.29408 2.49673 7.29684L2.92836 6.39479ZM2.49024 6.29261L2.50222 5.29268C2.20516 5.28912 1.91089 5.35036 1.63991 5.47213L2.04981 6.38427L2.4597 7.2964C2.46554 7.29378 2.47187 7.29246 2.47827 7.29254L2.49024 6.29261ZM2.04981 6.38427L1.63991 5.47213C1.36893 5.59391 1.12776 5.77328 0.933176 5.99778L1.68883 6.65275L2.44449 7.30771C2.44868 7.30288 2.45387 7.29902 2.4597 7.2964L2.04981 6.38427ZM1.68883 6.65275L0.933176 5.99778C0.738596 6.22227 0.595292 6.48648 0.513242 6.77201L1.47435 7.04819L2.43545 7.32438C2.43722 7.31823 2.4403 7.31255 2.44449 7.30771L1.68883 6.65275ZM1.47435 7.04819L0.513242 6.77201C0.431192 7.05754 0.412369 7.35752 0.458084 7.65106L1.44617 7.49718L2.43426 7.3433C2.43328 7.33698 2.43368 7.33053 2.43545 7.32438L1.47435 7.04819ZM1.44617 7.49718L0.458084 7.65106C0.503799 7.94461 0.612953 8.22466 0.777945 8.47171L1.60955 7.91634L2.44115 7.36097C2.4376 7.35565 2.43525 7.34962 2.43426 7.3433L1.44617 7.49718ZM1.60955 7.91634L0.777945 8.47171C0.942936 8.71877 1.1598 8.92689 1.41343 9.08158L1.93413 8.22784L2.45483 7.3741C2.44937 7.37077 2.4447 7.36629 2.44115 7.36097L1.60955 7.91634ZM1.93413 8.22784L2.81687 8.6977C3.05451 8.25123 3.41788 7.83011 3.89309 7.46402L3.2828 6.67184L2.67251 5.87966C2.00371 6.3949 1.44041 7.02711 1.05139 7.75798L1.93413 8.22784ZM10.3595 9.96517V10.9652C10.8806 10.9652 11.3804 10.7581 11.7489 10.3896L11.0418 9.68253L10.3347 8.97542C10.3413 8.96886 10.3502 8.96517 10.3595 8.96517V9.96517ZM11.0418 9.68253L11.7489 10.3896C12.1174 10.0211 12.3245 9.52132 12.3245 9.00017H11.3245H10.3245C10.3245 8.99089 10.3282 8.98199 10.3347 8.97542L11.0418 9.68253ZM11.3245 9.00017H12.3245C12.3245 8.47902 12.1174 7.97921 11.7489 7.61071L11.0418 8.31781L10.3347 9.02492C10.3282 9.01836 10.3245 9.00945 10.3245 9.00017H11.3245ZM11.0418 8.31781L11.7489 7.61071C11.3804 7.2422 10.8806 7.03517 10.3595 7.03517V8.03517V9.03517C10.3502 9.03517 10.3413 9.03148 10.3347 9.02492L11.0418 8.31781ZM10.3595 8.03517V7.03517C9.8384 7.03517 9.33868 7.24216 8.97023 7.61061L9.67734 8.31771L10.3844 9.02482C10.3778 9.03145 10.3688 9.03517 10.3595 9.03517V8.03517ZM9.67734 8.31771L8.97023 7.61061C8.60179 7.97905 8.3948 8.47878 8.3948 8.99984H9.3948H10.3948C10.3948 9.00921 10.3911 9.0182 10.3844 9.02482L9.67734 8.31771ZM9.3948 8.99984H8.3948C8.3948 9.5209 8.60179 10.0206 8.97023 10.3891L9.67734 9.68196L10.3844 8.97485C10.3911 8.98148 10.3948 8.99047 10.3948 8.99984H9.3948ZM9.67734 9.68196L8.97023 10.3891C9.33868 10.7575 9.8384 10.9645 10.3595 10.9645V9.9645V8.9645C10.3688 8.9645 10.3778 8.96823 10.3844 8.97485L9.67734 9.68196ZM6.60413 8.99984H5.60413C5.60413 8.99056 5.60782 8.98165 5.61438 8.97509L6.32149 9.6822L7.02859 10.3893C7.3971 10.0208 7.60413 9.52099 7.60413 8.99984H6.60413ZM6.32149 9.6822L5.61438 8.97509C5.62094 8.96853 5.62985 8.96484 5.63913 8.96484V9.96484V10.9648C6.16028 10.9648 6.66009 10.7578 7.02859 10.3893L6.32149 9.6822ZM5.63913 9.96484V8.96484C5.64841 8.96484 5.65731 8.96853 5.66388 8.97509L4.95677 9.6822L4.24966 10.3893C4.61817 10.7578 5.11798 10.9648 5.63913 10.9648V9.96484ZM4.95677 9.6822L5.66388 8.97509C5.67044 8.98165 5.67413 8.99056 5.67413 8.99984H4.67413H3.67413C3.67413 9.52099 3.88116 10.0208 4.24966 10.3893L4.95677 9.6822ZM4.67413 8.99984H5.67413C5.67413 9.00912 5.67044 9.01802 5.66388 9.02459L4.95677 8.31748L4.24966 7.61037C3.88116 7.97888 3.67413 8.47869 3.67413 8.99984H4.67413ZM4.95677 8.31748L5.66388 9.02459C5.65731 9.03115 5.64841 9.03484 5.63913 9.03484V8.03484V7.03484C5.11798 7.03484 4.61817 7.24186 4.24966 7.61037L4.95677 8.31748ZM5.63913 8.03484V9.03484C5.62985 9.03484 5.62094 9.03115 5.61438 9.02459L6.32149 8.31748L7.02859 7.61037C6.66009 7.24186 6.16028 7.03484 5.63913 7.03484V8.03484ZM6.32149 8.31748L5.61438 9.02459C5.60782 9.01802 5.60413 9.00912 5.60413 8.99984H6.60413H7.60413C7.60413 8.47869 7.3971 7.97888 7.02859 7.61037L6.32149 8.31748ZM5.9008 11.0858L6.40783 10.2239C6.07189 10.0263 5.67223 9.96719 5.29348 10.0591L5.52935 11.0309L5.76521 12.0027C5.63896 12.0333 5.50574 12.0136 5.39376 11.9478L5.9008 11.0858ZM5.52935 11.0309L5.29348 10.0591C4.91473 10.151 4.58663 10.3868 4.37867 10.7164L5.22441 11.25L6.07015 11.7836C6.00083 11.8935 5.89146 11.9721 5.76521 12.0027L5.52935 11.0309ZM5.22441 11.25L4.37867 10.7164C4.1707 11.046 4.0992 11.4437 4.1793 11.8251L5.15795 11.6196L6.13661 11.414C6.16331 11.5412 6.13947 11.6737 6.07015 11.7836L5.22441 11.25ZM5.15795 11.6196L4.1793 11.8251C4.25941 12.2065 4.48483 12.5418 4.80783 12.7599L5.36746 11.9312L5.9271 11.1024C6.03476 11.1751 6.1099 11.2869 6.13661 11.414L5.15795 11.6196ZM5.36746 11.9312L4.83329 12.7765L5.06329 12.9219L5.59746 12.0765L6.13164 11.2311L5.90164 11.0858L5.36746 11.9312ZM5.59746 12.0765L5.06398 12.9223C5.94235 13.4763 6.95963 13.7704 7.99813 13.7704V12.7704V11.7704C7.33727 11.7704 6.68991 11.5833 6.13094 11.2307L5.59746 12.0765ZM7.99813 12.7704V13.7704C9.03663 13.7704 10.0539 13.4763 10.9323 12.9223L10.3988 12.0765L9.86531 11.2307C9.30635 11.5833 8.65899 11.7704 7.99813 11.7704V12.7704ZM10.3988 12.0765L10.9312 12.923L11.1612 12.7783L10.6288 11.9318L10.0964 11.0854L9.86638 11.23L10.3988 12.0765ZM10.6288 11.9318L11.1618 12.778C11.3285 12.6729 11.4729 12.5361 11.5867 12.3753L10.7705 11.7976L9.95429 11.2198C9.9922 11.1663 10.0403 11.1207 10.0958 11.0857L10.6288 11.9318ZM10.7705 11.7976L11.5867 12.3753C11.7005 12.2145 11.7816 12.0328 11.8252 11.8407L10.85 11.6193L9.87485 11.3979C9.88938 11.3339 9.91637 11.2734 9.95429 11.2198L10.7705 11.7976ZM10.85 11.6193L11.8252 11.8407C11.8688 11.6486 11.8742 11.4497 11.841 11.2555L10.8553 11.4241L9.86961 11.5928C9.85854 11.5281 9.86032 11.4619 9.87485 11.3979L10.85 11.6193ZM10.8553 11.4241L11.841 11.2555C11.8077 11.0613 11.7366 10.8756 11.6316 10.7088L10.7855 11.2418L9.93934 11.7748C9.90437 11.7193 9.88067 11.6574 9.86961 11.5928L10.8553 11.4241ZM10.7855 11.2418L11.6316 10.7088C11.5266 10.5421 11.3898 10.3978 11.2289 10.2839L10.6512 11.1001L10.0734 11.9163C10.0199 11.8784 9.97431 11.8303 9.93934 11.7748L10.7855 11.2418ZM10.6512 11.1001L11.2289 10.2839C11.0681 10.1701 10.8865 10.089 10.6943 10.0454L10.4729 11.0206L10.2515 11.9958C10.1875 11.9813 10.127 11.9543 10.0734 11.9163L10.6512 11.1001ZM10.4729 11.0206L10.6943 10.0454C10.5022 10.0018 10.3033 9.99644 10.1091 10.0297L10.2778 11.0153L10.4464 12.001C10.3817 12.0121 10.3155 12.0103 10.2515 11.9958L10.4729 11.0206ZM10.2778 11.0153L10.1091 10.0297C9.91494 10.0629 9.72918 10.134 9.56247 10.239L10.0955 11.0852L10.6285 11.9313C10.5729 11.9663 10.5111 11.99 10.4464 12.001L10.2778 11.0153ZM10.0955 11.0852L9.56129 10.2398L9.33129 10.3851L9.86546 11.2305L10.3996 12.0759L10.6296 11.9305L10.0955 11.0852ZM9.86546 11.2305L9.33194 10.3847C8.93266 10.6366 8.47022 10.7703 7.99813 10.7703V11.7703V12.7703C8.84789 12.7703 9.68027 12.5297 10.399 12.0763L9.86546 11.2305ZM7.99813 11.7703V10.7703C7.52604 10.7703 7.0636 10.6366 6.66432 10.3847L6.1308 11.2305L5.59727 12.0763C6.31598 12.5297 7.14837 12.7703 7.99813 12.7703V11.7703ZM6.1308 11.2305L6.66322 10.384L6.43322 10.2394L5.9008 11.0858L5.36837 11.9323L5.59837 12.077L6.1308 11.2305Z" fill="#333333" mask="url(#path-1-inside-1_3240_2355)"/>
</svg>
