<svg width="14" height="14" viewBox="0 0 14 14" fill="none" xmlns="http://www.w3.org/2000/svg">
<path d="M6.79074 2.65262C6.81007 2.61356 6.83994 2.58068 6.87696 2.55769C6.91399 2.5347 6.95671 2.52252 7.00029 2.52252C7.04387 2.52252 7.08659 2.5347 7.12361 2.55769C7.16064 2.58068 7.19051 2.61356 7.20984 2.65262L8.22892 4.71681C8.29605 4.85267 8.39515 4.97021 8.51771 5.05935C8.64027 5.14848 8.78263 5.20654 8.93257 5.22855L11.2116 5.56207C11.2548 5.56833 11.2954 5.58654 11.3287 5.61466C11.3621 5.64277 11.3869 5.67966 11.4004 5.72115C11.4139 5.76265 11.4155 5.80709 11.4051 5.84946C11.3946 5.89182 11.3725 5.93042 11.3413 5.96088L9.69313 7.56582C9.58444 7.67174 9.50311 7.80249 9.45615 7.94682C9.4092 8.09114 9.39802 8.24472 9.42358 8.39432L9.81269 10.6619C9.82031 10.705 9.81565 10.7495 9.79923 10.7901C9.78281 10.8308 9.7553 10.866 9.71984 10.8917C9.68438 10.9175 9.64239 10.9328 9.59866 10.9358C9.55494 10.9388 9.51124 10.9295 9.47255 10.9089L7.43527 9.8378C7.30103 9.76731 7.15169 9.73048 7.00007 9.73048C6.84845 9.73048 6.6991 9.76731 6.56486 9.8378L4.52803 10.9089C4.48935 10.9294 4.4457 10.9386 4.40205 10.9355C4.3584 10.9324 4.3165 10.9171 4.28111 10.8914C4.24571 10.8656 4.21826 10.8305 4.20186 10.7899C4.18546 10.7493 4.18077 10.705 4.18833 10.6619L4.57699 8.39476C4.60267 8.24509 4.59155 8.09142 4.54459 7.947C4.49763 7.80259 4.41624 7.67177 4.30745 7.56582L2.65927 5.96132C2.62777 5.93089 2.60545 5.89223 2.59484 5.84974C2.58424 5.80725 2.58579 5.76263 2.59931 5.72097C2.61283 5.67931 2.63777 5.64229 2.6713 5.61412C2.70484 5.58595 2.74561 5.56776 2.78897 5.56163L5.06756 5.22855C5.21767 5.20671 5.36023 5.14873 5.48295 5.05958C5.60568 4.97044 5.70491 4.8528 5.7721 4.71681L6.79074 2.65262Z" fill="#FACB40" stroke="#FACB40" stroke-linecap="round" stroke-linejoin="round"/>
</svg>
