<svg width="16" height="16" viewBox="0 0 16 16" fill="none" xmlns="http://www.w3.org/2000/svg">
<g clip-path="url(#clip0_3240_5097)">
<path d="M4.66732 6.66683V14.6668M10.0007 3.92016L9.33398 6.66683H13.2207C13.4276 6.66683 13.6318 6.71502 13.8169 6.80759C14.0021 6.90016 14.1631 7.03457 14.2873 7.20016C14.4115 7.36576 14.4954 7.55799 14.5325 7.76165C14.5695 7.9653 14.5586 8.17478 14.5007 8.3735L12.9473 13.7068C12.8665 13.9838 12.6981 14.2271 12.4673 14.4002C12.2365 14.5733 11.9558 14.6668 11.6673 14.6668H2.66732C2.3137 14.6668 1.97456 14.5264 1.72451 14.2763C1.47446 14.0263 1.33398 13.6871 1.33398 13.3335V8.00016C1.33398 7.64654 1.47446 7.3074 1.72451 7.05735C1.97456 6.80731 2.3137 6.66683 2.66732 6.66683H4.50732C4.75537 6.6667 4.99848 6.59737 5.20929 6.46664C5.4201 6.33592 5.59027 6.14897 5.70065 5.92683L8.00065 1.3335C8.31504 1.33739 8.62448 1.41228 8.90585 1.55256C9.18723 1.69284 9.43327 1.8949 9.62559 2.14363C9.81791 2.39236 9.95153 2.68134 10.0165 2.98896C10.0814 3.29659 10.076 3.61492 10.0007 3.92016Z" stroke="#26A251" stroke-width="1.4" stroke-linecap="round" stroke-linejoin="round"/>
<path d="M4.54202 14.5002V6.9585H2.04297L1.41797 7.5835V13.8512L2.54202 14.5002H4.54202Z" fill="#26A251"/>
</g>
<defs>
<clipPath id="clip0_3240_5097">
<rect width="16" height="16" fill="white"/>
</clipPath>
</defs>
</svg>
