<svg width="16" height="16" viewBox="0 0 16 16" fill="none" xmlns="http://www.w3.org/2000/svg">
<path d="M6.16699 10.8667L6.91797 10.4331L10.3779 8.43311L11.126 8.00049L10.3779 7.56689L6.91797 5.56689L6.16699 5.1333V10.8667ZM1.87402 8.54248L1.87305 8.5249L1.83398 7.97998C1.83497 6.54591 1.94144 5.53281 2.10938 4.91357C2.21416 4.53675 2.42185 4.29447 2.76074 4.15967L2.91406 4.10889C3.16527 4.03942 3.68433 3.98021 4.57031 3.93994L4.57422 3.93896C5.43202 3.89278 6.21633 3.87354 6.94043 3.87354H6.95996L8.0166 3.8335C9.40068 3.8337 10.5184 3.86061 11.3721 3.90967C12.2388 3.95948 12.7981 4.02992 13.0869 4.10791V4.10889C13.5174 4.2285 13.7717 4.4825 13.8916 4.9126V4.91357C13.9654 5.18047 14.0234 5.56293 14.0625 6.08447V6.09033C14.1081 6.6112 14.1269 7.05653 14.127 7.43994V7.45752L14.1289 7.47607L14.166 8.00732C14.1657 9.44793 14.0609 10.4653 13.8926 11.0864C13.7729 11.5174 13.5178 11.7714 13.0869 11.8911C12.8357 11.9605 12.3172 12.0208 11.4316 12.061H11.4268C10.569 12.1072 9.78462 12.1265 9.06055 12.1265H9.05078L9.04199 12.1274L8.00098 12.1665L7.00781 12.1616C6.0646 12.1518 5.27169 12.1283 4.62891 12.0913C3.75989 12.0414 3.20012 11.9694 2.91211 11.8911H2.91113C2.5358 11.786 2.2946 11.578 2.16016 11.2397L2.10938 11.0864C2.03562 10.8196 1.97855 10.4376 1.93945 9.9165L1.93848 9.90967C1.89291 9.38882 1.87402 8.94346 1.87402 8.56006V8.54248Z" fill="#333333" stroke="#333333"/>
</svg>
